<?xml version="1.0" standalone="no"?><!DOCTYPE svg PUBLIC "-//W3C//DTD SVG 1.1//EN" "http://www.w3.org/Graphics/SVG/1.1/DTD/svg11.dtd"><svg t="1615110620358" class="icon" viewBox="0 0 1024 1024" version="1.1" xmlns="http://www.w3.org/2000/svg" p-id="2455" xmlns:xlink="http://www.w3.org/1999/xlink" width="200" height="200"><defs><style type="text/css"></style></defs><path d="M931 854.1L761.9 685c45.4-61.2 72.2-136.9 72.2-219 0-203.3-164.8-368-368-368C262.8 98 98 262.8 98 466c0 203.3 164.8 368 368 368 81.6 0 156.9-26.5 217.9-71.4l169.3 169.3 77.8-77.8z m-465-140c-66.3 0-128.5-25.8-175.4-72.6C243.8 594.6 218 532.3 218 466s25.8-128.5 72.6-175.4C337.5 243.8 399.8 218 466 218c66.3 0 128.5 25.8 175.4 72.6C688.2 337.4 714 399.7 714 466c0 66.3-25.8 128.5-72.6 175.4-46.8 46.9-109.1 72.7-175.4 72.7z" p-id="2456" fill="#707070"></path></svg>