<?xml version="1.0" standalone="no"?><!DOCTYPE svg PUBLIC "-//W3C//DTD SVG 1.1//EN" "http://www.w3.org/Graphics/SVG/1.1/DTD/svg11.dtd"><svg t="1615113511188" class="icon" viewBox="0 0 1024 1024" version="1.1" xmlns="http://www.w3.org/2000/svg" p-id="2156" xmlns:xlink="http://www.w3.org/1999/xlink" width="200" height="200"><defs><style type="text/css"></style></defs><path d="M989.616 871.59l-162.529-165.989c106.261-166.781 86.705-390.665-58.922-536.31-168.464-168.431-441.456-168.431-609.898 0-168.356 168.394-168.356 441.477 0 609.818 149.922 149.906 382.64 166.252 550.785 49.284l160.139 163.603 120.425-120.407zM240.569 696.906c-122.997-122.972-122.997-322.328 0-445.326 122.958-122.958 322.377-122.958 445.279 0 123.009 122.997 123.009 322.354 0 445.326-122.919 122.958-322.321 122.958-445.279 0z" p-id="2157" fill="#707070"></path></svg>